<svg xmlns="http://www.w3.org/2000/svg" width="200" height="200" fill="none" viewBox="0 0 200 200"><defs><linearGradient id="a" x1="0%" x2="100%" y1="0%" y2="100%"><stop offset="0%" style="stop-color:#3b82f6;stop-opacity:1"/><stop offset="100%" style="stop-color:#1d4ed8;stop-opacity:1"/></linearGradient></defs><circle cx="100" cy="100" r="90" fill="url(#a)" opacity=".1"/><circle cx="100" cy="100" r="90" stroke="url(#a)" stroke-width="2"/><circle cx="100" cy="100" r="70" fill="url(#a)" opacity=".2"/><g transform="translate(100 100)"><path stroke="url(#a)" stroke-linecap="round" stroke-linejoin="round" stroke-width="8" d="m-35-35 20 20L0 0l15 15 20 20m0-70L15-15 0 0l-15 15-20 20"/><circle cx="-35" cy="-35" r="6" fill="url(#a)"/><circle cx="35" cy="-35" r="6" fill="url(#a)"/><circle cx="-35" cy="35" r="6" fill="url(#a)"/><circle cx="35" cy="35" r="6" fill="url(#a)"/><circle r="8" fill="url(#a)"/><circle r="4" fill="#fff"/></g><g fill="url(#a)" transform="translate(100 100)"><circle cy="-50" r="3" opacity=".6"/><circle cx="50" r="3" opacity=".6"/><circle cy="50" r="3" opacity=".6"/><circle cx="-50" r="3" opacity=".6"/></g></svg>