<svg xmlns="http://www.w3.org/2000/svg" width="64" height="64" fill="none" viewBox="0 0 64 64"><defs><linearGradient id="a" x1="0%" x2="100%" y1="0%" y2="100%"><stop offset="0%" style="stop-color:#3b82f6;stop-opacity:1"/><stop offset="100%" style="stop-color:#1d4ed8;stop-opacity:1"/></linearGradient></defs><circle cx="32" cy="32" r="28" fill="url(#a)" opacity=".1"/><circle cx="32" cy="32" r="28" stroke="url(#a)" stroke-width="1.5"/><circle cx="32" cy="32" r="22" fill="url(#a)" opacity=".2"/><g transform="translate(32 32)"><path stroke="url(#a)" stroke-linecap="round" stroke-linejoin="round" stroke-width="3" d="m-11-11 6 6 5 5 5 5 6 6m0-22L5-5 0 0l-5 5-6 6"/><circle cx="-11" cy="-11" r="2.5" fill="url(#a)"/><circle cx="11" cy="-11" r="2.5" fill="url(#a)"/><circle cx="-11" cy="11" r="2.5" fill="url(#a)"/><circle cx="11" cy="11" r="2.5" fill="url(#a)"/><circle r="3" fill="url(#a)"/><circle r="1.5" fill="#fff"/></g><g fill="url(#a)" transform="translate(32 32)"><circle cy="-16" r="1.5" opacity=".6"/><circle cx="16" r="1.5" opacity=".6"/><circle cy="16" r="1.5" opacity=".6"/><circle cx="-16" r="1.5" opacity=".6"/></g></svg>